<svg xmlns="http://www.w3.org/2000/svg" width="88" height="88" viewBox="0 0 88 88">
  <g id="check-mark-circle-line-icon" transform="translate(0 0)">
    <path id="Path_28" data-name="Path 28" d="M44,0A44,44,0,1,1,12.888,12.887,43.864,43.864,0,0,1,44,0ZM24.747,48.11A2.3,2.3,0,0,1,27.828,44.7l9.626,8.728L60.043,29.774a2.3,2.3,0,1,1,3.334,3.171L39.239,58.226l0,0a2.3,2.3,0,0,1-3.2.12L24.747,48.11Zm47.1-31.961A39.39,39.39,0,1,0,83.385,44,39.267,39.267,0,0,0,71.85,16.149Z" transform="translate(0 0)" fill="#15371a"/>
  </g>
</svg>
