<svg xmlns="http://www.w3.org/2000/svg" width="88" height="88.489" viewBox="0 0 88 88.489">
  <g id="Group_13" data-name="Group 13" transform="translate(0 0)">
    <path id="Path_30" data-name="Path 30" d="M207.574,288.018a29.971,29.971,0,0,0,10.742,5.124c.235.061.473.113.706.181A1.35,1.35,0,0,1,220.146,295a1.384,1.384,0,0,1-1.755,1.043c-1.214-.273-2.427-.574-3.608-.962a27.477,27.477,0,0,1-9.428-5.25,33.048,33.048,0,0,1-11.52-19.252c-3.269-17.136,8.448-34.3,25.608-37.366a30.549,30.549,0,0,1,19.814,2.634c10.078,5.186,16.212,13.383,17.8,24.719A32.014,32.014,0,0,1,240.818,292.7a32.857,32.857,0,0,1-15.188,4.062c-.72.013-1.425-.007-1.77-.808-.42-.976.176-1.825,1.318-1.942a48.2,48.2,0,0,0,6.147-.724,57.606,57.606,0,0,0,6.448-2.2,1.021,1.021,0,0,0,.556-.7,14.109,14.109,0,0,0-3.668-11.431,3.049,3.049,0,0,0-2.994-.916c-1.733.321-3.474.6-5.2.939a7.144,7.144,0,0,1-4.43-.627,18.664,18.664,0,0,0-3.991-1.478,6,6,0,0,0-2.991.395,2.276,2.276,0,0,0-1.6,2.581,5.391,5.391,0,0,1-3.389,6.253A14.877,14.877,0,0,0,207.574,288.018Zm46.9-26.913c-.928,1.1-1.774,2.1-2.611,3.1a12.488,12.488,0,0,1-10.535,4.633,7.571,7.571,0,0,1-6.921-5.541c-.379-1.625-.379-1.627-2.043-1.854-.271-.037-.546-.038-.819-.067a8.238,8.238,0,0,1-3.989-1.128,3.577,3.577,0,0,1-1.509-4.376,11.728,11.728,0,0,0,.872-4.255,1.25,1.25,0,0,1,1.305-1.348,1.23,1.23,0,0,1,1.39,1.342,16.723,16.723,0,0,1-.644,4.009c-.6,1.808-.253,2.492,1.706,2.659,1.03.088,2.06.2,3.081.361a3.5,3.5,0,0,1,3.238,2.99,4.538,4.538,0,0,0,3.8,3.933c3.684.752,6.682-.628,9.1-3.381,1.264-1.44,2.473-2.93,3.656-4.437a1.349,1.349,0,0,0,.229-1.1,53.352,53.352,0,0,0-2.47-5.867,28.234,28.234,0,0,0-10.644-11.058c-1.319.8-2.479,1.56-3.689,2.227-.982.541-2.049.926-3.032,1.465a10.745,10.745,0,0,0-3.81,3.049,1.41,1.41,0,0,1-2.014.392,1.313,1.313,0,0,1-.18-2.076A16.622,16.622,0,0,1,231,241.947a52.332,52.332,0,0,1,4.76-2.469c.647-.332,1.277-.7,2.1-1.151a29.545,29.545,0,0,0-21.788-1.015c.158.373.26.625.372.873,1.336,2.961,1.776,5.925.124,8.938a2.964,2.964,0,0,0-.359,1.393,8.086,8.086,0,0,1-2.035,5.34c-.676.822-1.417,1.59-2.1,2.41a3.714,3.714,0,0,0-.885,3.783,5.219,5.219,0,0,1-1.138,5.264,16.408,16.408,0,0,1-10.07,5.753c-.94.162-1.9.215-2.914.325a28.248,28.248,0,0,0,8.69,14.961,41.173,41.173,0,0,1,3.481-2.638,3.091,3.091,0,0,0,1.71-3.249,5.8,5.8,0,0,1,4.615-6.141,9.349,9.349,0,0,1,6.544.878,7.281,7.281,0,0,0,5.344.819c1.308-.369,2.692-.465,4.038-.706a5.946,5.946,0,0,1,6.215,2.519,17.47,17.47,0,0,1,3.373,7.3c.241,1.269.339,2.564.5,3.844C249.295,284.437,256.387,272.986,254.478,261.1ZM213.22,238.143c-.378.177-.6.266-.808.381-.85.471-1.732.894-2.536,1.434-9.795,6.585-14.544,15.7-13.755,27.57.039.582.137.963.876.943A13.752,13.752,0,0,0,207.54,263.7a3.093,3.093,0,0,0,.793-3.17,6.1,6.1,0,0,1,1.351-5.87c.811-1.024,1.687-2,2.525-3a4.517,4.517,0,0,0,.96-2.679,14.819,14.819,0,0,1,.788-3.7,6.049,6.049,0,0,0,.378-3.646C214.035,240.5,213.623,239.39,213.22,238.143Z" transform="translate(-180.966 -220.671)" fill="#15371a"/>
    <path id="Path_31" data-name="Path 31" d="M197.115,388.521c0,1.272,0,2.495,0,3.718,0,1.093-.462,1.756-1.285,1.8-.84.047-1.418-.637-1.463-1.741q-.143-3.52-.28-7.041c-.048-1.232.36-1.656,1.592-1.7,2.281-.073,4.561-.159,6.843-.226,1.081-.032,1.707.462,1.729,1.324s-.573,1.424-1.646,1.454c-1.211.034-2.423.008-3.635.008l-.106.246c.2.189.394.39.608.564a40.658,40.658,0,0,0,48.434,2.328,68.538,68.538,0,0,0,6.169-5.051c.974-.833,1.655-.993,2.294-.326a1.9,1.9,0,0,1-.159,2.647,42.589,42.589,0,0,1-25.6,12.232c-12.308,1.371-23.283-2.026-32.946-9.861C197.492,388.756,197.29,388.639,197.115,388.521Z" transform="translate(-181.438 -310.568)" fill="#15371a"/>
    <path id="Path_32" data-name="Path 32" d="M163.242,250.39a44.527,44.527,0,0,1,28.642-42.628c1.946-.758,3.993-1.264,6.008-1.838a1.521,1.521,0,0,1,2,.969,1.569,1.569,0,0,1-1.356,1.788,41.6,41.6,0,0,0-11.724,4.7c-11.371,6.84-18.211,16.811-20.247,29.937a40.9,40.9,0,0,0,4.991,26.8,3.457,3.457,0,0,1,.352.751,1.425,1.425,0,0,1-.8,1.769,1.474,1.474,0,0,1-1.87-.808c-1.077-2.183-2.215-4.348-3.109-6.607A43.087,43.087,0,0,1,163.242,250.39Z" transform="translate(-163.239 -204.866)" fill="#15371a"/>
    <path id="Path_33" data-name="Path 33" d="M363.7,279.631a44.136,44.136,0,0,1-8.744,25.975c-.684.934-1.453,1.163-2.184.66a1.661,1.661,0,0,1-.155-2.386,41.054,41.054,0,0,0,7.524-17.829,41.726,41.726,0,0,0-4.595-27.061c-.175-.326-.377-.64-.531-.975a1.474,1.474,0,0,1,.532-2.016,1.435,1.435,0,0,1,1.975.663c1,1.914,2.023,3.822,2.855,5.808A44.315,44.315,0,0,1,363.7,279.631Z" transform="translate(-275.701 -234.901)" fill="#15371a"/>
    <path id="Path_34" data-name="Path 34" d="M293.226,216.077a41.69,41.69,0,0,0-28.866-9.72c-.247.013-.494.028-.741.022a1.271,1.271,0,0,1-1.4-1.371c-.028-.9.374-1.344,1.322-1.421a41.658,41.658,0,0,1,13.418,1.15,42.814,42.814,0,0,1,17.241,8.626c.212.175.437.335.718.551,0-1,0-1.932,0-2.862,0-.433-.047-.867-.024-1.3a1.4,1.4,0,0,1,1.407-1.422,1.348,1.348,0,0,1,1.358,1.358q.183,3.889.312,7.781a1.187,1.187,0,0,1-1.232,1.328q-3.653.231-7.312.388a1.429,1.429,0,0,1-1.63-1.376c-.009-.829.6-1.376,1.613-1.394,1.26-.023,2.521-.005,3.781-.005Z" transform="translate(-222.617 -203.457)" fill="#15371a"/>
  </g>
</svg>
