<svg xmlns="http://www.w3.org/2000/svg" viewBox="0 0 200 200">
    <!-- Circle -->
    <circle cx="100" cy="100" r="90" fill="transparent" stroke="#21602B" stroke-width="3" stroke-linecap="round"></circle>
    
    <!-- Leaf -->
    <g>
        <!-- Main leaf shape -->
        <path d="M100,35 C125,60 140,85 100,165 C60,85 75,60 100,35" fill="#21602B"></path>
        <!-- Light green accent -->
        <path d="M100,35 C110,55 115,80 100,120 C85,80 90,55 100,35" fill="#8BB729"></path>
        <!-- Leaf vein -->
        <path d="M100,35 C100,60 100,100 100,165" fill="none" stroke="#ffffff" stroke-width="1.5" stroke-opacity="0.6" stroke-linecap="round"></path>
    </g>
    
    <!-- Text -->
    <g transform="translate(62, 145)">
        <!-- Arabic text for "الأمانة" -->
        <path d="M8,0 C12,-5 16,0 16,4 L16,15 C16,20 12,24 8,24 C4,24 0,20 0,15 L0,4 C0,0 4,-5 8,0 Z" fill="#21602B" transform="translate(2, 0)"></path>
        <path d="M0,0 L0,24 M-4,0 L4,0" stroke="#21602B" stroke-width="3" stroke-linecap="round" transform="translate(24, 0)"></path>
        <path d="M0,0 L12,0 M6,0 L6,24" stroke="#21602B" stroke-width="3" stroke-linecap="round" transform="translate(36, 0)"></path>
        <path d="M0,24 L0,8 C0,3 4,0 8,0 C12,0 16,3 16,8 L16,24 M4,12 L12,12" stroke="#21602B" stroke-width="3" stroke-linecap="round" transform="translate(54, 0)"></path>
        <path d="M0,0 L0,24 M-4,0 L4,0" stroke="#21602B" stroke-width="3" stroke-linecap="round" transform="translate(78, 0)"></path>
    </g>
</svg> 