<svg xmlns="http://www.w3.org/2000/svg" width="149.114" height="173.026" viewBox="0 0 149.114 173.026">
  <g id="Group_4" data-name="Group 4" transform="translate(-1519 300.698)">
    <g id="Group_3" data-name="Group 3" transform="translate(1519 -300.698)">
      <g id="Group_1" data-name="Group 1" transform="translate(0 0)">
        <path id="Path_1" data-name="Path 1" d="M200.656,284.473c19.767,14.286,40.706,19.563,63.694,21.163-13.521,11.519-34.955,9.684-49.5-1.163A38.219,38.219,0,0,1,200.656,284.473Z" transform="translate(-163.118 -220.01)" fill="#8bb729"/>
        <path id="Path_2" data-name="Path 2" d="M224.269,187.424a48.592,48.592,0,0,1-2.66,8.337c-3.759,8.5-10.1,14.285-18.126,18.5a46.335,46.335,0,0,1-30.7,4.707c-17.367-3.293-29.743-13.3-36.989-29.607-3.627-8.167-3.7-16.755-3.208-25.418.116-2.029.719-3.931.891-5.963.63-7.444-1.573-13.845-7.392-18.783-.134-.114-.328-.157-.151-.075.7,1.557,1.893,3.111,2.632,4.73a33.012,33.012,0,0,1,2.28,6.372c.785,3.435.566,3.814-2.815,3.777-4.766-.053-7.8-2.736-9.927-6.488a78.946,78.946,0,0,1-3.915-9.076,17.131,17.131,0,0,0-8.051-8.951,2.058,2.058,0,0,1-.966-1.019,27.474,27.474,0,0,1,19.339,4.065c6.02,3.75,9.68,9.47,12.136,16.329,10.2-18.939,25.926-28.417,46.99-28.352,8.558.027,16.617,3.016,24.1,7.541-1.723.367-3.433.826-5.171,1.086-9.679,1.449-16.225,7.092-21.106,15.262-3.986,6.672-10.249,10.241-17.622,12.285a35.731,35.731,0,0,1-16.694.387c-2.219-.433-3.089-.829-2.365-2.949a35.484,35.484,0,0,1,4.179-8.832,32.474,32.474,0,0,1,6.13-7.355c3.842-3.373,8.221-6.059,11.73-9.177a28.237,28.237,0,0,0-3.134,1.2c-12.109,6.058-20.561,15.4-24.294,28.469-3.777,13.222-1.685,25.727,5.917,37.264a44.82,44.82,0,0,0,19.727,16.446c7.041,3.126,14.513,3.887,22.164,3.3a44.582,44.582,0,0,0,23.564-9.051,34.453,34.453,0,0,0,8.764-10.074C221.358,193.414,224.034,187.368,224.269,187.424Z" transform="translate(-105.175 -120.506)" fill="#8bb729"/>
        <path id="Path_3" data-name="Path 3" d="M207.74,166.918a3.8,3.8,0,0,0,1.052.385c4.111.953,19.524,3.471,31.119-7.695A33.021,33.021,0,0,0,243,155.881s.775-1.314,2.168-3.407c2.856-4.29,8.77-11.7,20.8-13.177,1.251-.153,2.656-.769,4.022-.887A22.628,22.628,0,0,0,249.6,142.7a34.678,34.678,0,0,0-5.535,4.9c-2.486,2.688-5.2,6.426-7.764,8.841C236.3,156.442,226.555,167.383,207.74,166.918Z" transform="translate(-167.417 -130.868)" fill="#63aa31"/>
        <path id="Path_4" data-name="Path 4" d="M130.743,165.947a4.807,4.807,0,0,1-.818.259,9.175,9.175,0,0,1-5.659-.611,12.621,12.621,0,0,1-2.848-1.68,17.712,17.712,0,0,1-5.092-6.687,18.439,18.439,0,0,1-.74-2.46,19.106,19.106,0,0,0-.616-2.091c-.3-.849-.865-2.048-1.358-3.244a14.163,14.163,0,0,0-2.7-4,16.369,16.369,0,0,0-3.573-2.98,11.124,11.124,0,0,1-1.612-.965,1.824,1.824,0,0,1-.394-.456,2.321,2.321,0,0,0-.156-.286,12.789,12.789,0,0,1,9.644,6.182,18.224,18.224,0,0,1,1.763,3.485c.7,1.81,1.311,4.192,2.1,5.879C118.684,156.293,121.5,162.742,130.743,165.947Z" transform="translate(-105.175 -132.789)" fill="#6bad30"/>
        <path id="Path_5" data-name="Path 5" d="M269.974,229a10.28,10.28,0,0,0-2.693,1.026c-1.216.688-2.344,1.662-3.591,2.505.551-1.645,1.214-3.268,1.638-4.961.932-3.716,1.927-7.431,2.54-11.216a6.405,6.405,0,0,0-2.616-6.7,2.8,2.8,0,0,0-3.515.383,7.558,7.558,0,0,0-1.1,2.153l.453.214c1.137-1.913,2.585-2.167,3.881-.547a4.767,4.767,0,0,1,1.038,2.39c.307,3.613-2.157,9.881-2.157,9.881s-.64-2.656-1.133-3.942a12.509,12.509,0,0,0-.854-1.839,15.9,15.9,0,0,0-1.978-2.619c-2.283-2.333-5.34-3.007-8.96-3.05,2.545,2.668,2.939,5.718,3.623,8.665a17.048,17.048,0,0,0,.971,3.058,5.214,5.214,0,0,0,5.51,3.165c.464-5-4.923-12.393-4.923-12.393a14.145,14.145,0,0,1,2.247,1.93c3.583,4.557,4.655,9.546,2.637,15.023-1.1,2.983-2.279,5.932-3.374,8.916a29.064,29.064,0,0,0-.723,2.891,35.077,35.077,0,0,0-3.926-3.269c-3.789-2.338-7.761-2.8-12.088.128,2.316,1.883,4.5,3.654,6.682,5.438.54.443,1.041.939,1.567,1.4a5.62,5.62,0,0,0,5.271,1.314c1.731-.4,2.168-1.279,1.107-2.764a13.226,13.226,0,0,0-2-2.208,17.57,17.57,0,0,0-3.227-2.147c-.893-.475-3.466-1.373-3.8-1.551,3.59.186,9.813,3.54,10.807,7.833,1.124,4.853,3.7,8.3,8.01,10.045a3.945,3.945,0,0,1,2.035-1.413,16.624,16.624,0,0,1-4.983-5.929,13.733,13.733,0,0,1-.643-11.4c1.559-4.268,8.312-8.328,8.06-8.023a4.293,4.293,0,0,1-.835.679c-.782.562-1.464,1.236-2.21,1.867a12.83,12.83,0,0,0-4.349,6.936c-.268,1.093.086,1.527,1.128,1.64,3.1.337,5.2-1.345,6.842-3.739,2.163-3.159,3.267-7.14,7.1-9.414A14.942,14.942,0,0,0,269.974,229Z" transform="translate(-187.529 -174.333)" fill="#21612b"/>
        <path id="Path_6" data-name="Path 6" d="M302.528,284.089c-19.767,14.286-42.524,18.629-65.512,20.228,9.6,7.5,23.752,10.573,35.877,7.874A40.661,40.661,0,0,0,302.528,284.089Z" transform="translate(-185.183 -219.777)" fill="#21612b"/>
      </g>
      <g id="Group_2" data-name="Group 2" transform="translate(10.114 156.251)">
        <path id="Path_7" data-name="Path 7" d="M135.766,531.757v-4.119h.037a.955.955,0,0,1,.764.354,1.586,1.586,0,0,1,.289,1v4.231a5.258,5.258,0,0,0,.559,2.73,2.217,2.217,0,0,0,2.041,1.006h.177v.233h-.214a3.753,3.753,0,0,1-2.749-.923,6.558,6.558,0,0,1-.242.914l-.094.242a.5.5,0,0,0-.037.112,4.609,4.609,0,0,1-1.472,1.948,4.88,4.88,0,0,1-1.081.625q-.3.121-.634.223a2.907,2.907,0,0,1-1.146.1,1.986,1.986,0,0,1-.764-.2.546.546,0,0,1-.3-.485.425.425,0,0,1,.177-.345.439.439,0,0,1,.364-.1.485.485,0,0,1,.335.186.491.491,0,0,1-.14.718,2.484,2.484,0,0,0,1.3-.065,3.779,3.779,0,0,0,1.687-1.081q1.146-1.342,1.146-4.836v-.541c-.007-.131-.009-.264-.009-.4v-1.519Z" transform="translate(-130.901 -523.826)" fill="#21612b" stroke="#23612c" stroke-miterlimit="10" stroke-width="0.3"/>
        <path id="Path_8" data-name="Path 8" d="M152.443,537.992a.651.651,0,0,1,.191.48.617.617,0,0,1-.191.452.629.629,0,0,1-.461.191.651.651,0,0,1-.48-.191.617.617,0,0,1-.191-.452.653.653,0,0,1,.671-.671A.629.629,0,0,1,152.443,537.992Zm2.39-10.33a.959.959,0,0,1,.764.335,1.566,1.566,0,0,1,.28.979v4.314a4.243,4.243,0,0,1-.857,2.926,3.658,3.658,0,0,1-2.8.988h-.308v-.233h.27a2.217,2.217,0,0,0,2.041-1.006,5.259,5.259,0,0,0,.559-2.73v-5.573Zm-.582,10.321a.661.661,0,0,1,.191.471.64.64,0,0,1-.191.47.651.651,0,0,1-.48.191.618.618,0,0,1-.452-.191.638.638,0,0,1-.191-.47.66.66,0,0,1,.191-.471.6.6,0,0,1,.452-.2A.635.635,0,0,1,154.251,537.983Z" transform="translate(-143.287 -523.841)" fill="#21612b" stroke="#23612c" stroke-miterlimit="10" stroke-width="0.3"/>
        <path id="Path_9" data-name="Path 9" d="M177.844,537.2H167.686l-.019-.233h6.682v-4a6.442,6.442,0,0,0-.969-3.635,2.887,2.887,0,0,0-2.46-1.388,3.511,3.511,0,0,0-2.256.633,2.067,2.067,0,0,0-.727,1.678v.224a.45.45,0,0,1,.364-.186.467.467,0,0,1,.345.13.5.5,0,0,1,.149.345.438.438,0,0,1-.149.345.469.469,0,0,1-.345.13.417.417,0,0,1-.438-.345,2.3,2.3,0,0,1-.112-.764,2.181,2.181,0,0,1,.839-1.826,3.71,3.71,0,0,1,2.33-.652,4.047,4.047,0,0,1,3.411,1.566,6.034,6.034,0,0,1,1.128,3.681v4.063h2.386Z" transform="translate(-153.213 -523.841)" fill="#21612b" stroke="#23612c" stroke-miterlimit="10" stroke-width="0.3"/>
        <path id="Path_10" data-name="Path 10" d="M193.316,536.111v-.233h1.705v-8.695a1.527,1.527,0,0,1,.289-.978.975.975,0,0,1,.774-.345h.037v1.771q0-1.006,1.342-1.062h5.769a6.044,6.044,0,0,1,4.128,1.3,4.584,4.584,0,0,1,1.444,3.625,4.162,4.162,0,0,1-1.23,3.271,5.1,5.1,0,0,1-2.4,1.118h4.809v.233Zm2.8-.233h6.533a7.781,7.781,0,0,0,4.585-1.118,3.858,3.858,0,0,0,1.388-3.271,3.166,3.166,0,0,0-1.566-2.842,8.253,8.253,0,0,0-4.389-.979h-.615l-5.936.018Z" transform="translate(-168.778 -522.747)" fill="#21612b" stroke="#23612c" stroke-miterlimit="10" stroke-width="0.3"/>
        <path id="Path_11" data-name="Path 11" d="M238.882,532.647a2.672,2.672,0,0,1-.307.419,3.66,3.66,0,0,1-2.805.988h-.307v-.233h.27a2.218,2.218,0,0,0,2.041-1.006,5.259,5.259,0,0,0,.559-2.73v-4.259a1.566,1.566,0,0,1,.28-.979.959.959,0,0,1,.764-.335h.056v5.573a5.259,5.259,0,0,0,.559,2.73,2.217,2.217,0,0,0,2.041,1.006h.177v.233h-.214a3.66,3.66,0,0,1-2.805-.988A2.693,2.693,0,0,1,238.882,532.647Zm-.517-9.977a.675.675,0,0,1,0,.942.628.628,0,0,1-.461.191.639.639,0,0,1-.471-.191.675.675,0,0,1,0-.942.625.625,0,0,1,.471-.2A.614.614,0,0,1,238.365,522.67Zm1.873,0a.662.662,0,0,1-.48,1.132.613.613,0,0,1-.456-.191.688.688,0,0,1,0-.942.6.6,0,0,1,.456-.2A.637.637,0,0,1,240.238,522.67Z" transform="translate(-194.354 -520.69)" fill="#21612b" stroke="#23612c" stroke-miterlimit="10" stroke-width="0.3"/>
        <path id="Path_12" data-name="Path 12" d="M255.313,517.943a.959.959,0,0,1,.764.335,1.567,1.567,0,0,1,.28.979v8.135a4.243,4.243,0,0,1-.857,2.926,3.66,3.66,0,0,1-2.805.988h-.307v-.233h.27a2.217,2.217,0,0,0,2.041-1.006,5.255,5.255,0,0,0,.559-2.73v-9.394Z" transform="translate(-204.625 -517.943)" fill="#21612b" stroke="#23612c" stroke-miterlimit="10" stroke-width="0.3"/>
        <path id="Path_13" data-name="Path 13" d="M265.827,531.307V517.943h.056q1.016,0,1.016,1.258v12.106Z" transform="translate(-212.781 -517.943)" fill="#21612b" stroke="#23612c" stroke-miterlimit="10" stroke-width="0.3"/>
        <path id="Path_14" data-name="Path 14" d="M293.141,537.2q-.354,3.075-3.728,3.075H287v-.233h2.414q2.312,0,2.581-2.843h-3.606q-4.641-.036-4.641-4.753a4.888,4.888,0,0,1,1.174-3.486,5.445,5.445,0,0,1,7.017-.046,4.752,4.752,0,0,1,1.2,3.42q0,.019.018,4.651Zm-4.734-.233h3.625v-4.538a5.5,5.5,0,0,0-.96-3.392,3.141,3.141,0,0,0-2.628-1.165q-3.579,0-3.579,4.632a5.643,5.643,0,0,0,.755,3.262A3.2,3.2,0,0,0,288.408,536.972Z" transform="translate(-223.657 -523.841)" fill="#21612b" stroke="#23612c" stroke-miterlimit="10" stroke-width="0.3"/>
        <path id="Path_15" data-name="Path 15" d="M332.072,537.2h-7.791v-.233h6.682v-4a6.439,6.439,0,0,0-.969-3.635,2.887,2.887,0,0,0-2.46-1.388,3.509,3.509,0,0,0-2.255.633,2.066,2.066,0,0,0-.727,1.678v.224a.45.45,0,0,1,.364-.186.466.466,0,0,1,.345.13.494.494,0,0,1,.149.345.436.436,0,0,1-.149.345.467.467,0,0,1-.345.13.417.417,0,0,1-.438-.345,2.312,2.312,0,0,1-.112-.764,2.182,2.182,0,0,1,.839-1.826,3.71,3.71,0,0,1,2.33-.652,4.048,4.048,0,0,1,3.411,1.566,6.037,6.037,0,0,1,1.128,3.681Z" transform="translate(-248.255 -523.841)" fill="#21612b" stroke="#23612c" stroke-miterlimit="10" stroke-width="0.3"/>
        <path id="Path_16" data-name="Path 16" d="M347.44,531.307V517.943h.056q1.015,0,1.016,1.258v12.106Z" transform="translate(-262.309 -517.943)" fill="#21612b" stroke="#23612c" stroke-miterlimit="10" stroke-width="0.3"/>
        <path id="Path_17" data-name="Path 17" d="M349.863,531.757v-4.119h.037a.955.955,0,0,1,.764.354,1.586,1.586,0,0,1,.289,1v4.231a5.258,5.258,0,0,0,.559,2.73,2.217,2.217,0,0,0,2.041,1.006h.177v.233h-.214a3.754,3.754,0,0,1-2.749-.923,6.562,6.562,0,0,1-.243.914l-.093.242a.527.527,0,0,0-.038.112,4.6,4.6,0,0,1-1.472,1.948,4.858,4.858,0,0,1-1.081.625c-.2.081-.41.155-.634.223a2.907,2.907,0,0,1-1.146.1,1.979,1.979,0,0,1-.764-.2.545.545,0,0,1-.3-.485.425.425,0,0,1,.177-.345.439.439,0,0,1,.364-.1.485.485,0,0,1,.335.186.491.491,0,0,1-.14.718,2.484,2.484,0,0,0,1.3-.065,3.778,3.778,0,0,0,1.687-1.081q1.146-1.342,1.146-4.836v-.541q-.009-.2-.009-.4v-1.519Z" transform="translate(-260.827 -523.826)" fill="#21612b" stroke="#23612c" stroke-miterlimit="10" stroke-width="0.3"/>
        <path id="Path_18" data-name="Path 18" d="M370.346,535.8a2.69,2.69,0,0,1-.308.419,3.66,3.66,0,0,1-2.805.988h-.308v-.233h.271a2.216,2.216,0,0,0,2.041-1.006,5.255,5.255,0,0,0,.559-2.73v-4.259a1.566,1.566,0,0,1,.28-.979.958.958,0,0,1,.764-.335h.056v5.573a5.259,5.259,0,0,0,.559,2.73,2.217,2.217,0,0,0,2.041,1.006h.177v.233h-.214a3.658,3.658,0,0,1-2.805-.988A2.642,2.642,0,0,1,370.346,535.8Zm-.518,2.195a.652.652,0,0,1,.191.48.617.617,0,0,1-.191.452.628.628,0,0,1-.461.191.64.64,0,0,1-.471-.191.617.617,0,0,1-.191-.452.651.651,0,0,1,.191-.48.64.64,0,0,1,.471-.191A.628.628,0,0,1,369.828,537.992Zm1.873-.009a.659.659,0,0,1,.191.471.638.638,0,0,1-.191.47.651.651,0,0,1-.48.191.613.613,0,0,1-.456-.191.647.647,0,0,1-.187-.47.669.669,0,0,1,.187-.471.6.6,0,0,1,.456-.2A.635.635,0,0,1,371.7,537.983Z" transform="translate(-274.133 -523.841)" fill="#21612b" stroke="#23612c" stroke-miterlimit="10" stroke-width="0.3"/>
        <path id="Path_19" data-name="Path 19" d="M387.27,532.647a2.694,2.694,0,0,1-.307.419,3.661,3.661,0,0,1-2.805.988h-.308v-.233h.27a2.217,2.217,0,0,0,2.041-1.006,5.259,5.259,0,0,0,.559-2.73v-4.259a1.564,1.564,0,0,1,.28-.979.958.958,0,0,1,.764-.335h.056v5.573a5.259,5.259,0,0,0,.559,2.73,2.217,2.217,0,0,0,2.041,1.006h.177v.233h-.214a3.659,3.659,0,0,1-2.8-.988A2.675,2.675,0,0,1,387.27,532.647Zm-.517-9.977a.675.675,0,0,1,0,.942.627.627,0,0,1-.461.191.639.639,0,0,1-.471-.191.675.675,0,0,1,0-.942.624.624,0,0,1,.471-.2A.613.613,0,0,1,386.753,522.67Zm1.873,0a.662.662,0,0,1-.48,1.132.612.612,0,0,1-.456-.191.687.687,0,0,1,0-.942.6.6,0,0,1,.456-.2A.636.636,0,0,1,388.626,522.67Z" transform="translate(-284.404 -520.69)" fill="#21612b" stroke="#23612c" stroke-miterlimit="10" stroke-width="0.3"/>
        <path id="Path_20" data-name="Path 20" d="M410.97,527.662a.928.928,0,0,1,.764.364,1.532,1.532,0,0,1,.28.96v5.107a3.5,3.5,0,0,1-.643,2.218,2.4,2.4,0,0,1-2.022.894,1.949,1.949,0,0,1-1.64-.764,2.42,2.42,0,0,1-1.892.764,1.947,1.947,0,0,1-1.78-.932,3.737,3.737,0,0,1-2.768.932h-.494v-.233h.457a2.217,2.217,0,0,0,2.041-1.006,5.259,5.259,0,0,0,.559-2.73v-4.651h.056a.948.948,0,0,1,.764.345,1.514,1.514,0,0,1,.289.969v3.392a4.438,4.438,0,0,1-.764,2.824,1.5,1.5,0,0,0,1.426.9q1.78,0,1.78-2.768l-.019-6.095h.056a.929.929,0,0,1,.765.363,1.57,1.57,0,0,1,.28.979v4.594a3.578,3.578,0,0,1-.625,2.218,1.5,1.5,0,0,0,1.314.708q1.761,0,1.761-2.768v-6.589Z" transform="translate(-294.675 -523.841)" fill="#21612b" stroke="#23612c" stroke-miterlimit="10" stroke-width="0.3"/>
        <path id="Path_21" data-name="Path 21" d="M438.781,529.872a2.648,2.648,0,0,1-.308.419,3.844,3.844,0,0,1-2.963,1.016H434.1v-.233h1.407a3.292,3.292,0,0,0,.783-.093q-1.2-.6-1.2-2.609v-5.62a1.136,1.136,0,0,1,.215-.727.672.672,0,0,1,.568-.27h.037v6.58q0,1.92.941,2.441,1.351-.745,1.352-3.588v-9.245h.055a.985.985,0,0,1,.8.364,1.571,1.571,0,0,1,.289.988v8.043a5.259,5.259,0,0,0,.559,2.73,2.216,2.216,0,0,0,2.04,1.006h.177v.233h-.215a3.66,3.66,0,0,1-2.8-.988A2.162,2.162,0,0,1,438.781,529.872Z" transform="translate(-314.9 -517.943)" fill="#21612b" stroke="#23612c" stroke-miterlimit="10" stroke-width="0.3"/>
        <path id="Path_22" data-name="Path 22" d="M457.2,517.943a.958.958,0,0,1,.764.335,1.566,1.566,0,0,1,.28.979v8.135a4.245,4.245,0,0,1-.857,2.926,3.661,3.661,0,0,1-2.806.988h-.307v-.233h.271a2.217,2.217,0,0,0,2.041-1.006,5.259,5.259,0,0,0,.559-2.73v-9.394Z" transform="translate(-327.142 -517.943)" fill="#21612b" stroke="#23612c" stroke-miterlimit="10" stroke-width="0.3"/>
      </g>
      <text id="الأمانة" transform="translate(10.114 141.355)" fill="#21612b" stroke="#23612c" stroke-miterlimit="10" stroke-width="1" font-size="55" font-family="SegoeUI, Segoe UI"><tspan x="0" y="0">الأمانة</tspan></text>
    </g>
  </g>
</svg>
