<svg xmlns="http://www.w3.org/2000/svg" width="1200" height="447.998" viewBox="0 0 1200 447.998">
  <g id="Subtraction_84" data-name="Subtraction 84" transform="translate(0.002 -0.001)" fill="rgba(255,255,255,0)">
    <path d="M 1141.999267578125 446.9985046386719 L 57.99866104125977 446.9985046386719 C 50.30404663085938 446.9985046386719 42.83927917480469 445.4917297363281 35.81174087524414 442.5198669433594 C 32.43281555175781 441.0904846191406 29.17558479309082 439.3223266601562 26.13081550598145 437.2644958496094 C 23.11373901367188 435.2274169921875 20.27527809143066 432.8855590820312 17.69389343261719 430.3037109375 C 15.11558532714844 427.7266540527344 12.77373886108398 424.8884887695312 10.73312377929688 421.8678894042969 C 8.674354553222656 418.8215637207031 6.906200885772705 415.5640258789062 5.477739334106445 412.1858825683594 C 2.505277633666992 405.1592712402344 0.9982007145881653 397.6944885253906 0.9982007145881653 389.9989624023438 L 0.9982007145881653 58.00064849853516 C 0.9982007145881653 50.30495452880859 2.505277633666992 42.84018707275391 5.477585315704346 35.81357192993164 C 6.906200885772705 32.43556976318359 8.674354553222656 29.17803382873535 10.73312377929688 26.13157081604004 C 12.7708158493042 23.11372566223145 15.11266231536865 20.27557182312012 17.69358444213867 17.69572448730469 C 20.2734317779541 15.11464881896973 23.11189270019531 12.77295589447021 26.1303539276123 10.73511028289795 C 29.17912292480469 8.674801826477051 32.43619918823242 6.906648635864258 35.81158447265625 5.479725360870361 C 42.84004592895508 2.507879257202148 50.30481719970703 1.000956058502197 57.99866104125977 1.000956058502197 L 71.94065856933594 1.000956058502197 L 71.93312072753906 1.000956058502197 C 96.04035186767578 1.184033036231995 115.651741027832 20.94741821289062 115.6498947143555 45.05680084228516 L 115.6508178710938 72.04311370849609 C 115.6508178710938 112.86572265625 148.8628234863281 146.0772705078125 189.6857452392578 146.0772705078125 C 230.5088195800781 146.0772705078125 263.7208251953125 112.86572265625 263.7208251953125 72.04311370849609 L 263.7208251953125 45.14126205444336 L 263.7208251953125 45.15095520019531 C 263.8335876464844 33.42695617675781 268.4760437011719 22.38972473144531 276.79296875 14.07218647003174 C 285.1181945800781 5.745263576507568 296.165283203125 1.103109955787659 307.8994445800781 1.000956058502197 L 1141.999267578125 1.000956058502197 C 1149.692504882812 1.000956058502197 1157.156982421875 2.507879257202148 1164.185424804688 5.479725360870361 C 1167.562255859375 6.908032894134521 1170.819702148438 8.676186561584473 1173.867309570312 10.73495578765869 C 1176.887939453125 12.77557182312012 1179.726196289062 15.11741733551025 1182.30322265625 17.6954174041748 C 1184.883178710938 20.27511024475098 1187.224975585938 23.11341857910156 1189.264038085938 26.13157081604004 C 1191.321899414062 29.17834091186523 1193.090087890625 32.43603134155273 1194.519409179688 35.81372451782227 C 1197.491088867188 42.84033966064453 1198.997924804688 50.30526351928711 1198.997924804688 58.00064849853516 L 1198.997924804688 389.9989624023438 C 1198.997924804688 397.6943359375 1197.491088867188 405.1591186523438 1194.519287109375 412.1858825683594 C 1193.08984375 415.5640258789062 1191.32177734375 418.8217163085938 1189.264038085938 421.8680419921875 C 1187.22509765625 424.8849487304688 1184.883178710938 427.7232666015625 1182.30322265625 430.3037109375 C 1179.722412109375 432.884033203125 1176.883911132812 435.2260437011719 1173.867309570312 437.2643432617188 C 1170.817260742188 439.3241882324219 1167.559692382812 441.0924987792969 1164.185302734375 442.52001953125 C 1157.158569335938 445.4917297363281 1149.694213867188 446.9985046386719 1141.999267578125 446.9985046386719 Z" stroke="none"/>
    <path d="M 1141.999267578125 445.9985046386719 C 1149.5595703125 445.9985046386719 1156.892944335938 444.5181884765625 1163.795532226562 441.5989685058594 C 1167.110717773438 440.1966552734375 1170.310913085938 438.4594116210938 1173.307373046875 436.4357299804688 C 1176.271484375 434.4329528808594 1179.060180664062 432.1318664550781 1181.596069335938 429.5968017578125 C 1184.130981445312 427.0610961914062 1186.432006835938 424.2723388671875 1188.435302734375 421.3081970214844 C 1190.456909179688 418.3154296875 1192.194091796875 415.1149597167969 1193.598388671875 411.7963256835938 C 1196.517578125 404.8934326171875 1197.997924804688 397.5597229003906 1197.997924804688 389.9989624023438 L 1197.997924804688 58.00064849853516 C 1197.997924804688 50.43972396850586 1196.517578125 43.10603332519531 1193.598510742188 36.20341873168945 C 1192.1943359375 32.88510894775391 1190.457153320312 29.68464851379395 1188.435424804688 26.6914176940918 C 1186.432006835938 23.72587966918945 1184.130981445312 20.93726348876953 1181.596069335938 18.40249443054199 C 1179.063842773438 15.86941719055176 1176.275268554688 13.56849479675293 1173.3076171875 11.56357192993164 C 1170.3134765625 9.540956497192383 1167.113159179688 7.803879261016846 1163.7958984375 6.400802135467529 C 1156.891479492188 3.481263875961304 1149.55810546875 2.000956058502197 1141.999267578125 2.000956058502197 L 307.9080505371094 2.000956058502197 C 296.4378967285156 2.100802183151245 285.6388244628906 6.638802051544189 277.5002136230469 14.77926349639893 C 269.373046875 22.90702056884766 264.8348693847656 33.69069671630859 264.7208251953125 45.14569091796875 L 264.7208251953125 72.04311370849609 C 264.7208251953125 113.417106628418 231.0601959228516 147.0772705078125 189.6857452392578 147.0772705078125 C 148.311279296875 147.0772705078125 114.6508178710938 113.417106628418 114.6508178710938 72.04311370849609 L 114.6498947143555 45.05664825439453 C 114.6515884399414 21.4944953918457 95.48558807373047 2.179879188537598 71.92543029785156 2.000956058502197 L 57.99866104125977 2.000956058502197 C 50.43927764892578 2.000956058502197 43.10558700561523 3.481263875961304 36.20096969604492 6.400802135467529 C 32.88512420654297 7.802494525909424 29.68543243408203 9.539417266845703 26.68989372253418 11.56403350830078 C 23.7243537902832 13.56603336334229 20.93558502197266 15.86680221557617 18.40066146850586 18.40295600891113 C 15.8648157119751 20.93772506713867 13.56389331817627 23.72618675231934 11.56158542633057 26.69157218933105 C 9.53912353515625 29.68449401855469 7.802046775817871 32.88464736938477 6.398662090301514 36.20326232910156 C 3.478662252426147 43.10588073730469 1.99820077419281 50.43957138061523 1.99820077419281 58.00064849853516 L 1.99820077419281 389.9989624023438 C 1.99820077419281 397.5600280761719 3.478662252426147 404.8935852050781 6.398662090301514 411.7965087890625 C 7.802046775817871 415.1149597167969 9.53912353515625 418.3151245117188 11.56173896789551 421.3080444335938 C 13.56681632995605 424.27587890625 15.86773872375488 427.0644836425781 18.40097045898438 429.5966491699219 C 20.93727684020996 432.1335754394531 23.72620010375977 434.434326171875 26.6906623840332 436.4358825683594 C 29.68204689025879 438.4575805664062 32.88189315795898 440.1946411132812 36.20112228393555 441.5989685058594 C 43.1049690246582 444.5181884765625 50.43866348266602 445.9985046386719 57.99866104125977 445.9985046386719 L 1141.999267578125 445.9985046386719 M 1141.999267578125 447.9985046386719 L 57.99866104125977 447.9985046386719 C 50.16942977905273 447.9985046386719 42.57373809814453 446.4651184082031 35.42219924926758 443.4409484863281 C 31.98343086242676 441.9861755371094 28.66897010803223 440.1867980957031 25.57081604003906 438.0929565429688 C 22.50143241882324 436.0206604003906 19.61327743530273 433.6378784179688 16.98666191101074 431.0108032226562 C 14.36373901367188 428.3889465332031 11.98097038269043 425.5012512207031 9.904508590698242 422.427734375 C 7.809585571289062 419.3277282714844 6.010354518890381 416.0129699707031 4.556662082672119 412.5754089355469 C 1.531893014907837 405.4249572753906 -0.001799278892576694 397.8292541503906 -0.001799278892576694 389.9989624023438 L -0.001799278892576694 58.00064849853516 C -0.001799278892576694 50.17034149169922 1.531893014907837 42.57449340820312 4.556662082672119 35.42403411865234 C 6.010354518890381 31.98664855957031 7.809585571289062 28.67187881469727 9.904508590698242 25.57172584533691 C 11.97773933410645 22.50141716003418 14.36050796508789 19.61357116699219 16.98666191101074 16.98849487304688 C 19.61143112182617 14.36249446868896 22.49958610534668 11.9797248840332 25.57081604003906 9.906340599060059 C 28.67266273498535 7.810032844543457 31.98712348937988 6.010802268981934 35.42219924926758 4.558648586273193 C 42.57419967651367 1.534494519233704 50.17004776000977 0.0009561110055074096 57.99866104125977 0.0009561110055074096 L 71.94065856933594 0.0009561110055074096 C 96.59527587890625 0.1881868839263916 116.651741027832 20.40003395080566 116.6498947143555 45.05680084228516 L 116.6508178710938 72.04311370849609 C 116.6508178710938 112.314338684082 149.4140472412109 145.0772705078125 189.6857452392578 145.0772705078125 C 229.9574279785156 145.0772705078125 262.7208251953125 112.314338684082 262.7208251953125 72.04311370849609 L 262.7208251953125 45.14126205444336 C 262.8362121582031 33.15403366088867 267.5826721191406 21.86895561218262 276.0859069824219 13.36511039733887 C 284.5975952148438 4.851571559906006 295.8926696777344 0.1054176464676857 307.8906555175781 0.0009561110055074096 L 1141.999267578125 0.0009561110055074096 C 1149.827270507812 0.0009561110055074096 1157.4228515625 1.534494519233704 1164.574829101562 4.558648586273193 C 1168.01123046875 6.012187004089355 1171.326049804688 7.811417579650879 1174.427124023438 9.906340599060059 C 1177.5009765625 11.98295593261719 1180.388793945312 14.36587905883789 1183.010498046875 16.98849487304688 C 1185.63525390625 19.61310958862305 1188.01806640625 22.50095558166504 1190.092651367188 25.57172584533691 C 1192.186645507812 28.67203330993652 1193.98583984375 31.98680305480957 1195.440307617188 35.42403411865234 C 1198.464477539062 42.57480239868164 1199.997924804688 50.17064666748047 1199.997924804688 58.00064849853516 L 1199.997924804688 389.9989624023438 C 1199.997924804688 397.8289489746094 1198.464477539062 405.4246520996094 1195.440307617188 412.5754089355469 C 1193.98583984375 416.0126342773438 1192.186767578125 419.3274230957031 1190.092651367188 422.427734375 C 1188.017944335938 425.4977111816406 1185.635131835938 428.3854064941406 1183.010498046875 431.0108032226562 C 1180.384765625 433.6357116699219 1177.496948242188 436.0186462402344 1174.427124023438 438.0929565429688 C 1171.323120117188 440.1892700195312 1168.00830078125 441.9884948730469 1164.574829101562 443.4409484863281 C 1157.424194335938 446.4651184082031 1149.828857421875 447.9985046386719 1141.999267578125 447.9985046386719 Z" stroke="none" fill="#000"/>
  </g>
</svg>
