<svg xmlns="http://www.w3.org/2000/svg" viewBox="0 0 100 100">
  <path fill="#3D7A1F" d="M50,5 C60,20 80,30 90,60 C95,80 75,95 60,85 C50,80 45,70 40,60 C40,70 30,85 15,90 C0,95 0,75 10,55 C20,35 40,20 50,5 Z" />
  <path fill="#8BB729" opacity="0.6" d="M50,15 C55,25 70,35 75,55 C80,70 65,80 55,75 C47,70 45,60 42,55 C42,65 35,75 25,80 C15,85 15,70 22,55 C30,40 45,30 50,15 Z" />
  <path fill="#21602B" opacity="0.3" d="M50,25 C52,30 60,40 62,50 C65,60 58,65 52,62 C47,60 45,55 42,50 C42,55 38,65 35,67 C25,75 30,65 35,55 C40,45 48,35 50,25 Z" />
</svg> 