<svg xmlns="http://www.w3.org/2000/svg" width="76.352" height="98.892" viewBox="0 0 76.352 98.892">
  <path id="Path_51" data-name="Path 51" d="M298.239,248.236a20.268,20.268,0,0,0-5.31,2.023c-2.4,1.356-4.62,3.276-7.081,4.94,1.086-3.242,2.393-6.443,3.229-9.782,1.837-7.326,3.8-14.651,5.007-22.113.829-5.118-.593-10.241-5.157-13.207a5.519,5.519,0,0,0-6.93.755c-1.063,1.027-1.464,2.805-2.164,4.245l.892.422c2.242-3.771,5.1-4.272,7.652-1.079a9.4,9.4,0,0,1,2.047,4.712c.605,7.122-4.253,19.48-4.253,19.48s-1.261-5.236-2.234-7.772a24.663,24.663,0,0,0-1.684-3.625,31.347,31.347,0,0,0-3.9-5.163c-4.5-4.6-10.528-5.928-17.666-6.013,5.018,5.26,5.795,11.273,7.143,17.083a33.612,33.612,0,0,0,1.914,6.03,10.28,10.28,0,0,0,10.863,6.24c.915-9.85-9.705-24.434-9.705-24.434a27.888,27.888,0,0,1,4.43,3.8c7.064,8.984,9.177,18.82,5.2,29.618-2.166,5.881-4.494,11.695-6.652,17.579a57.311,57.311,0,0,0-1.426,5.7c-2.607-2.238-5.1-4.815-7.74-6.445-7.47-4.61-15.3-5.52-23.832.252,4.567,3.713,8.881,7.2,13.175,10.722,1.065.874,2.052,1.851,3.09,2.76a11.08,11.08,0,0,0,10.392,2.591c3.414-.8,4.274-2.521,2.182-5.45a26.076,26.076,0,0,0-3.945-4.353,34.638,34.638,0,0,0-6.361-4.233c-1.76-.936-6.834-2.707-7.491-3.059,7.078.366,19.347,6.98,21.307,15.442,2.215,9.567,7.3,16.363,15.793,19.8a7.778,7.778,0,0,1,4.013-2.785,32.775,32.775,0,0,1-9.825-11.689,27.075,27.075,0,0,1-1.267-22.48c3.073-8.414,16.387-16.42,15.891-15.817a8.461,8.461,0,0,1-1.647,1.338c-1.542,1.108-2.886,2.438-4.358,3.68a25.3,25.3,0,0,0-8.574,13.674c-.528,2.155.17,3.01,2.225,3.234,6.108.665,10.259-2.652,13.489-7.372,4.264-6.229,6.441-14.078,14-18.561C307.431,247.525,302.941,247.105,298.239,248.236Z" transform="translate(-239.207 -208.036)" fill="none" stroke="#15371a" stroke-width="2" opacity="0.74"/>
</svg>
