<?xml version="1.0" standalone="no"?>
<!DOCTYPE svg PUBLIC "-//W3C//DTD SVG 20010904//EN"
 "http://www.w3.org/TR/2001/REC-SVG-20010904/DTD/svg10.dtd">
<svg version="1.0" xmlns="http://www.w3.org/2000/svg"
 width="300.000000pt" height="300.000000pt" viewBox="0 0 300.000000 300.000000"
 preserveAspectRatio="xMidYMid meet">
<metadata>
Created by potrace 1.10, written by Peter Selinger 2001-2011
</metadata>
<g transform="translate(0.000000,300.000000) scale(0.100000,-0.100000)"
fill="#000000" stroke="none">
<path d="M53 2653 c4 -191 9 -375 11 -408 3 -33 8 -105 11 -160 3 -55 7 -111
10 -125 2 -14 7 -56 10 -95 3 -38 7 -86 10 -105 2 -19 9 -73 15 -120 20 -159
21 -165 41 -275 6 -33 12 -71 15 -85 3 -20 52 -228 68 -290 12 -47 62 -164
102 -240 115 -218 281 -381 491 -483 143 -69 264 -95 456 -95 254 -1 476 61
664 186 l53 35 36 -29 c62 -49 176 -133 234 -171 139 -92 347 -184 419 -183
36 1 16 11 -82 44 -84 28 -209 88 -270 130 -21 14 -40 26 -42 26 -6 0 -187
130 -212 153 -24 21 -31 47 -13 47 5 0 24 -13 42 -29 59 -51 229 -160 327
-209 158 -80 219 -97 346 -97 61 0 112 -5 113 -10 2 -5 -18 -19 -45 -32 l-48
-23 47 5 c59 6 88 23 88 52 0 33 -35 53 -73 42 -48 -14 -174 -8 -238 11 -134
41 -319 145 -477 267 l-82 65 -31 -26 c-17 -14 -34 -26 -37 -26 -17 1 -252
241 -372 380 -36 41 -67 77 -70 80 -15 14 -206 259 -281 360 -117 158 -261
363 -351 500 -211 322 -215 329 -186 358 26 26 54 13 88 -40 41 -65 237 -367
253 -390 7 -9 36 -52 66 -95 175 -252 387 -529 555 -723 130 -151 348 -370
368 -370 18 0 88 74 156 165 54 73 133 230 147 295 1 3 7 25 14 50 15 53 16
56 31 180 28 222 -25 484 -136 672 -148 253 -416 457 -747 569 -51 17 -99 33
-107 34 -151 34 -606 182 -727 236 -23 11 -44 19 -47 19 -25 0 -394 184 -510
255 l-109 66 6 -348z m209 190 c91 -51 160 -84 405 -194 24 -10 46 -19 49 -19
3 0 20 -7 37 -15 18 -8 52 -21 77 -29 25 -8 98 -33 163 -55 64 -22 184 -58
265 -81 449 -126 652 -229 844 -426 170 -175 253 -335 293 -569 15 -92 17
-259 3 -360 -12 -89 -66 -252 -112 -339 -64 -120 -176 -256 -211 -256 -29 0
-434 445 -555 610 -14 19 -37 48 -51 64 -85 101 -408 568 -587 848 -24 38 -52
72 -62 78 -33 18 -67 11 -90 -17 -24 -31 -21 -61 10 -105 11 -15 20 -30 20
-33 0 -3 16 -28 35 -55 19 -27 35 -52 35 -54 0 -5 179 -272 265 -396 119 -170
366 -494 485 -634 63 -75 152 -171 264 -284 l121 -123 -25 -19 c-73 -56 -276
-137 -400 -160 -385 -72 -714 17 -961 262 -106 105 -165 189 -234 333 -37 77
-96 248 -109 319 -2 12 -11 53 -19 91 -31 143 -47 232 -57 315 -5 47 -12 94
-14 105 -2 11 -7 47 -10 80 -3 33 -8 76 -11 95 -5 38 -10 99 -25 285 -13 148
-25 797 -16 820 5 15 9 15 38 -3 18 -11 81 -47 140 -79z"/>
</g>
</svg>
