<svg xmlns="http://www.w3.org/2000/svg" width="85.019" height="86.823" viewBox="0 0 85.019 86.823">
  <g id="Group_15" data-name="Group 15" transform="translate(-103.115 -7.602)">
    <g id="Group_14" data-name="Group 14" transform="translate(103.115 -3.864)">
      <path id="Path_35" data-name="Path 35" d="M138.793,427.438c.34.656.671,1.292,1,1.929,1.207,2.336.667,4.51-1.486,5.844-1.318.817-2.649,1.614-4,2.373a3.611,3.611,0,0,1-5.3-1.58q-6.295-11.64-12.534-23.314a4.022,4.022,0,0,1,1.481-5.672c1.348-.832,2.707-1.648,4.084-2.426a3.658,3.658,0,0,1,5.258,1.521c.325.559.634,1.129.992,1.767.987-.593,1.88-1.125,2.769-1.664,3.141-1.906,6.265-3.843,9.427-5.711a12.12,12.12,0,0,1,7-2.1,14.244,14.244,0,0,1,3.4.725c4.344,1.422,8.667,2.914,13,4.368a11.963,11.963,0,0,0,1.361.322,6.242,6.242,0,0,1,4.71,8.11c-.064.231-.11.468-.237,1.02.915-.461,1.66-.773,2.346-1.191,4.951-3.018,9.851-6.133,14.854-9.05a24.841,24.841,0,0,1,5.977-2.521,6.051,6.051,0,0,1,7.4,3.416,6.871,6.871,0,0,1-2.447,8.534q-13.588,8.827-27.184,17.641a11.727,11.727,0,0,1-10.13,1.558c-5.862-1.7-11.765-3.235-17.6-5.022C141.226,425.794,140.08,426.372,138.793,427.438Zm-1.517-2.881c.846-.506,1.617-.915,2.334-1.41a2.576,2.576,0,0,1,2.355-.36c5.252,1.516,10.515,2.99,15.775,4.477,1.186.335,2.379.649,3.561,1a8.965,8.965,0,0,0,7.826-1.2c9.016-5.881,18.066-11.7,27.07-17.605a3.857,3.857,0,0,0,1.487-1.966c.784-2.7-1.144-4.927-3.819-4.259a21.3,21.3,0,0,0-5.525,2.273c-5.113,2.994-10.134,6.16-15.189,9.263a10.009,10.009,0,0,1-6.393,1.6,37.582,37.582,0,0,1-5.1-.883c-2.842-.708-5.657-1.538-8.474-2.354a1.6,1.6,0,0,1-1.266-2.022A1.528,1.528,0,0,1,154,410.1c.193.052.385.106.578.16,3.017.839,6.025,1.719,9.055,2.5a2.749,2.749,0,0,0,3.527-2.047,3.018,3.018,0,0,0-2.264-3.728,101.076,101.076,0,0,1-14.369-4.645,12.672,12.672,0,0,0-2.591-.709c-2.26-.321-4.252.593-6.149,1.727-3.729,2.231-7.422,4.527-11.154,6.751-.736.439-.776.814-.373,1.551,2.159,3.941,4.271,7.912,6.4,11.87C136.829,423.832,137.015,424.118,137.277,424.557Zm-13.15-17.43a9.507,9.507,0,0,0-.892.391c-1.162.682-2.3,1.407-3.478,2.057a1.177,1.177,0,0,0-.514,1.87c.988,1.784,1.942,3.589,2.908,5.387q4.617,8.592,9.235,17.184c.593,1.1.841,1.167,1.9.549,1.1-.647,2.191-1.327,3.306-1.952a1.153,1.153,0,0,0,.512-1.855c-.78-1.343-1.483-2.736-2.219-4.107q-4.936-9.187-9.88-18.369A9.187,9.187,0,0,0,124.126,407.127Z" transform="translate(-115.873 -339.881)" fill="#15371a"/>
      <path id="Path_37" data-name="Path 37" d="M242.518,257.538c-6.989-5.674-5.77-14.12-1.593-18.353a12.048,12.048,0,0,1,16.521-.66,11.752,11.752,0,0,1,4.1,9.707c-.165,3.855-2,6.83-5.03,9.288.448.208.753.364,1.067.494,7.8,3.226,12.411,9.031,13.964,17.309a6.077,6.077,0,0,1,.073,1.464,1.362,1.362,0,0,1-1.252,1.332,6.1,6.1,0,0,1-1.046.033q-19.767,0-39.535,0c-2.1,0-2.612-.63-2.244-2.7,1.506-8.491,6.284-14.316,14.241-17.552C242,257.808,242.21,257.69,242.518,257.538Zm6.977,17.508q8.756,0,17.512,0c1.214,0,1.274-.1.967-1.277a18.891,18.891,0,0,0-20.526-13.921c-8.18,1.03-13.55,5.647-16.19,13.449-.586,1.731-.533,1.753,1.251,1.754Q241,275.051,249.5,275.046ZM240.7,247.562a8.885,8.885,0,0,0,8.8,8.958,8.91,8.91,0,0,0,.091-17.82A8.878,8.878,0,0,0,240.7,247.562Z" transform="translate(-201.866 -224.096)" fill="#15371a"/>
      <path id="Path_42" data-name="Path 42" d="M139.788,441.594a1.465,1.465,0,1,1,.007,2.929,1.465,1.465,0,1,1-.007-2.929Z" transform="translate(-132.032 -369.896)" fill="#15371a"/>
    </g>
  </g>
</svg>
